<svg width="1440" height="226" viewBox="0 0 1440 226" fill="none" xmlns="http://www.w3.org/2000/svg">
<path d="M0 199.08C59.9583 79.5838 119.916 20.412 179.875 115.237C239.833 210.062 299.792 458.884 359.75 538.508C419.708 618.132 479.667 528.558 539.625 516.939C599.583 505.321 659.541 571.657 719.5 488.998C779.458 406.34 839.417 174.687 899.375 93.4063C959.333 12.1252 1019.29 81.2159 1079.25 71.9976C1139.21 62.7792 1199.17 -24.7482 1259.12 9.34726C1319.08 43.4427 1379.04 199.161 1439 285.105" stroke="#F63B6B" stroke-width="3"/>
<path d="M179.875 646.237C239.833 607.62 299.792 335.754 359.75 207.775C419.709 79.7971 479.667 95.7069 539.625 106.148C599.583 116.589 659.542 121.562 719.5 141.877C779.458 162.191 839.417 197.848 899.375 167.004C959.334 136.16 1019.29 38.814 1079.25 10.4022C1139.21 -18.0097 1199.17 22.5122 1259.12 118.989C1319.08 215.466 1379.04 367.898 1439 486.833" stroke="#0FEDBE" stroke-width="3"/>
<path d="M0 70.4203C59.9583 85.1286 119.916 264.115 179.875 342.725C239.833 421.336 299.792 399.571 359.75 360.25C419.708 320.929 479.667 264.053 539.625 280.298C599.583 296.543 659.541 385.909 719.5 440.424C779.458 494.939 839.417 514.602 899.375 500.125C959.333 485.648 1019.29 437.031 1079.25 408.361C1139.21 379.691 1199.17 370.968 1259.12 296.096C1319.08 221.224 1379.04 80.2025 1439 54.6885" stroke="#FFAA2B" stroke-width="3"/>
</svg>
