<svg width="393" height="130" viewBox="0 0 393 130" fill="none" xmlns="http://www.w3.org/2000/svg">
<path d="M-638 199.077C-595.042 79.5814 -552.083 20.4096 -509.125 115.235C-466.167 210.06 -423.208 458.882 -380.25 538.506C-337.292 618.13 -294.333 528.556 -251.375 516.937C-208.417 505.318 -165.458 571.654 -122.5 488.996C-79.5418 406.338 -36.5833 174.685 6.37507 93.4038C49.3334 12.1228 92.2916 81.2135 135.25 71.9951C178.208 62.7768 221.166 -24.7506 264.125 9.34482C307.083 43.4402 350.042 199.158 393 285.102" stroke="#F63B6B" stroke-width="3"/>
<path d="M-509.125 646.235C-466.167 607.618 -423.208 335.751 -380.25 207.773C-337.292 79.7947 -294.333 95.7045 -251.375 106.146C-208.417 116.587 -165.459 121.559 -122.5 141.874C-79.5419 162.189 -36.5834 197.846 6.37495 167.002C49.3333 136.157 92.2915 38.8116 135.25 10.3997C178.208 -18.0121 221.166 22.5098 264.125 118.987C307.083 215.464 350.042 367.896 393 486.83" stroke="#0FEDBE" stroke-width="3"/>
<path d="M-638 70.4178C-595.042 85.1262 -552.083 264.112 -509.125 342.723C-466.167 421.333 -423.208 399.568 -380.25 360.248C-337.292 320.927 -294.333 264.051 -251.375 280.296C-208.417 296.541 -165.458 385.907 -122.5 440.421C-79.5418 494.936 -36.5833 514.6 6.37507 500.123C49.3334 485.646 92.2916 437.029 135.25 408.359C178.208 379.688 221.166 370.965 264.125 296.093C307.083 221.221 350.042 80.2 393 54.686" stroke="#FFAA2B" stroke-width="3"/>
</svg>
