<svg width="44" height="39" viewBox="0 0 44 39" fill="none" xmlns="http://www.w3.org/2000/svg">
<path d="M0.0722656 38.0518V31.4341C8.75802 29.5729 13.7213 0.827148 18.6846 0.827148C18.6846 0.827148 20.6371 0.874576 25.6003 8.11262C26.7434 9.77953 30.3409 8.11262 32.2181 8.11262C35.2289 8.11262 41.2262 26.264 41.2262 26.264H43.9146V37.4314L0.0722656 38.0518Z" fill="url(#paint0_linear_287_4090)"/>
<path d="M0.827148 31.0205L2.23392 30.1627C3.64069 29.305 6.45424 27.5895 9.26778 21.0192C12.0813 14.4488 14.8949 3.02366 17.7084 1.12766C20.522 -0.76834 23.3355 6.86483 26.1491 8.45455C28.9626 10.0443 31.7761 5.59054 34.5897 10.1872C37.4032 14.7839 40.2168 28.4309 43.0303 26.1971" stroke="#3F3F3F" stroke-width="1.65443" stroke-linecap="round"/>
<path d="M43.9146 38.0524L43.9145 23.3721C43.9145 21.3041 37.7105 32.2648 32.9539 32.4714C25.516 32.7945 21.7779 11.4619 16.8232 11.1707C13.3075 10.964 7.72385 22.7517 5.03546 22.5449C2.34706 22.338 1.57788 17.367 0.0722656 17.367L0.0722888 38.0524H43.9146Z" fill="url(#paint1_linear_287_4090)"/>
<path d="M0.899414 17.4181C3.71296 24.6959 6.52652 22.6809 9.34006 19.0406C12.1536 15.4002 14.9671 10.1345 17.7807 11.6385C20.5942 13.1425 23.4078 21.4161 26.2213 26.4631C29.0349 31.5102 31.8484 33.3307 34.662 31.9904C37.4755 30.6501 40.2891 26.149 43.1026 23.4947" stroke="white" stroke-width="1.65443" stroke-linecap="round"/>
<defs>
<linearGradient id="paint0_linear_287_4090" x1="22.3037" y1="0.827148" x2="22.4071" y2="39.7062" gradientUnits="userSpaceOnUse">
<stop stop-color="#3F3F3F" stop-opacity="0.3"/>
<stop offset="1" stop-color="#050505"/>
</linearGradient>
<linearGradient id="paint1_linear_287_4090" x1="21.7866" y1="-15.3029" x2="21.7866" y2="38.0524" gradientUnits="userSpaceOnUse">
<stop stop-color="white" stop-opacity="0"/>
<stop offset="1" stop-color="#050505"/>
</linearGradient>
</defs>
</svg>
